<mxfile host="app.diagrams.net" modified="2021-04-24T13:43:29.138Z" agent="5.0 (Windows NT 10.0; Win64; x64) AppleWebKit/537.36 (KHTML, like Gecko) Chrome/90.0.4430.85 Safari/537.36" etag="hh7JFeYgzPNCHVQkGiwR" version="14.6.0" type="github">
  <diagram id="_2qSlpsZqI6r0q__r0mw" name="Page-1">
    <mxGraphModel dx="-8372" dy="523" grid="1" gridSize="10" guides="1" tooltips="1" connect="1" arrows="1" fold="1" page="1" pageScale="1" pageWidth="827" pageHeight="1169" math="0" shadow="0">
      <root>
        <mxCell id="0" />
        <mxCell id="1" parent="0" />
        <mxCell id="ltAjZ6txVGTBPOTmVnSM-1" value="" style="rounded=0;whiteSpace=wrap;html=1;strokeColor=#6c8ebf;fontSize=18;opacity=30;align=center;fillColor=#dae8fc;" vertex="1" parent="1">
          <mxGeometry x="9320" y="879" width="570" height="360" as="geometry" />
        </mxCell>
        <mxCell id="ltAjZ6txVGTBPOTmVnSM-2" value="m" style="triangle;strokeColor=#006EAF;opacity=60;align=center;rotation=90;aspect=fixed;fontSize=18;horizontal=1;flipH=1;flipV=1;html=1;whiteSpace=wrap;fillColor=#1ba1e2;fontColor=#ffffff;" vertex="1" parent="1">
          <mxGeometry x="9502.75" y="1122" width="52.5" height="70" as="geometry" />
        </mxCell>
        <mxCell id="ltAjZ6txVGTBPOTmVnSM-3" style="edgeStyle=orthogonalEdgeStyle;rounded=0;orthogonalLoop=1;jettySize=auto;html=1;exitX=0;exitY=0;exitDx=0;exitDy=0;entryX=1;entryY=0;entryDx=0;entryDy=0;startArrow=none;startFill=0;endArrow=classic;endFill=1;fontSize=18;opacity=50;" edge="1" parent="1">
          <mxGeometry relative="1" as="geometry">
            <mxPoint x="9499" y="1009" as="sourcePoint" />
            <mxPoint x="9379" y="1009" as="targetPoint" />
          </mxGeometry>
        </mxCell>
        <mxCell id="ltAjZ6txVGTBPOTmVnSM-4" style="edgeStyle=orthogonalEdgeStyle;rounded=0;orthogonalLoop=1;jettySize=auto;html=1;exitX=0.5;exitY=1;exitDx=0;exitDy=0;entryX=0;entryY=0.5;entryDx=0;entryDy=0;dashed=1;startArrow=classic;startFill=1;endArrow=none;endFill=0;fontSize=18;" edge="1" parent="1" source="ltAjZ6txVGTBPOTmVnSM-5" target="ltAjZ6txVGTBPOTmVnSM-2">
          <mxGeometry relative="1" as="geometry" />
        </mxCell>
        <mxCell id="ltAjZ6txVGTBPOTmVnSM-5" value="p" style="rounded=0;whiteSpace=wrap;html=1;strokeColor=#2D7600;opacity=60;align=center;fontSize=18;fillColor=#60a917;fontColor=#ffffff;" vertex="1" parent="1">
          <mxGeometry x="9499" y="1009" width="60" height="60" as="geometry" />
        </mxCell>
        <mxCell id="ltAjZ6txVGTBPOTmVnSM-6" style="edgeStyle=orthogonalEdgeStyle;rounded=0;orthogonalLoop=1;jettySize=auto;html=1;exitX=1;exitY=0;exitDx=0;exitDy=0;entryX=0;entryY=0;entryDx=0;entryDy=0;startArrow=none;startFill=0;endArrow=classic;endFill=1;fontSize=18;opacity=50;" edge="1" parent="1" source="ltAjZ6txVGTBPOTmVnSM-7" target="ltAjZ6txVGTBPOTmVnSM-11">
          <mxGeometry relative="1" as="geometry">
            <Array as="points">
              <mxPoint x="9780" y="1009" />
              <mxPoint x="9780" y="1009" />
            </Array>
          </mxGeometry>
        </mxCell>
        <mxCell id="ltAjZ6txVGTBPOTmVnSM-7" value="p" style="rounded=0;whiteSpace=wrap;html=1;strokeColor=#2D7600;opacity=60;align=center;fontSize=18;fillColor=#60a917;fontColor=#ffffff;" vertex="1" parent="1">
          <mxGeometry x="9659" y="1009" width="60" height="60" as="geometry" />
        </mxCell>
        <mxCell id="ltAjZ6txVGTBPOTmVnSM-8" value="LRQ" style="text;html=1;strokeColor=none;fillColor=none;align=center;verticalAlign=middle;whiteSpace=wrap;rounded=0;fontSize=18;opacity=30;" vertex="1" parent="1">
          <mxGeometry x="9339" y="1009" width="40" height="20" as="geometry" />
        </mxCell>
        <mxCell id="ltAjZ6txVGTBPOTmVnSM-9" style="edgeStyle=orthogonalEdgeStyle;rounded=0;orthogonalLoop=1;jettySize=auto;html=1;exitX=1;exitY=0;exitDx=0;exitDy=0;entryX=0.25;entryY=0;entryDx=0;entryDy=0;startArrow=none;startFill=0;endArrow=classic;endFill=1;fontSize=18;opacity=50;" edge="1" parent="1">
          <mxGeometry relative="1" as="geometry">
            <mxPoint x="9379" y="928" as="sourcePoint" />
            <mxPoint x="9632.75" y="929" as="targetPoint" />
            <Array as="points">
              <mxPoint x="9379" y="929" />
            </Array>
          </mxGeometry>
        </mxCell>
        <mxCell id="ltAjZ6txVGTBPOTmVnSM-10" value="GRQ" style="text;html=1;strokeColor=none;fillColor=none;align=center;verticalAlign=middle;whiteSpace=wrap;rounded=0;fontSize=18;opacity=30;" vertex="1" parent="1">
          <mxGeometry x="9339" y="927" width="40" height="20" as="geometry" />
        </mxCell>
        <mxCell id="ltAjZ6txVGTBPOTmVnSM-11" value="LRQ" style="text;html=1;strokeColor=none;fillColor=none;align=center;verticalAlign=middle;whiteSpace=wrap;rounded=0;fontSize=18;opacity=30;" vertex="1" parent="1">
          <mxGeometry x="9840" y="1009" width="40" height="20" as="geometry" />
        </mxCell>
        <mxCell id="ltAjZ6txVGTBPOTmVnSM-13" style="edgeStyle=orthogonalEdgeStyle;rounded=0;orthogonalLoop=1;jettySize=auto;html=1;exitX=0;exitY=0.5;exitDx=0;exitDy=0;entryX=0.5;entryY=1;entryDx=0;entryDy=0;dashed=1;startArrow=classic;startFill=1;endArrow=classic;endFill=1;fontSize=18;" edge="1" parent="1" source="ltAjZ6txVGTBPOTmVnSM-16" target="ltAjZ6txVGTBPOTmVnSM-7">
          <mxGeometry relative="1" as="geometry" />
        </mxCell>
        <mxCell id="ltAjZ6txVGTBPOTmVnSM-14" value="m" style="triangle;strokeColor=#006EAF;opacity=60;align=center;rotation=90;aspect=fixed;fontSize=18;horizontal=1;flipH=1;flipV=1;html=1;whiteSpace=wrap;fillColor=#1ba1e2;fontColor=#ffffff;" vertex="1" parent="1">
          <mxGeometry x="9764" y="1121" width="52.5" height="70" as="geometry" />
        </mxCell>
        <mxCell id="ltAjZ6txVGTBPOTmVnSM-16" value="m" style="triangle;strokeColor=#006EAF;opacity=60;align=center;rotation=90;aspect=fixed;fontSize=18;horizontal=1;flipH=1;flipV=1;html=1;whiteSpace=wrap;fillColor=#1ba1e2;fontColor=#ffffff;" vertex="1" parent="1">
          <mxGeometry x="9662.75" y="1121" width="52.5" height="70" as="geometry" />
        </mxCell>
        <mxCell id="ltAjZ6txVGTBPOTmVnSM-19" style="edgeStyle=orthogonalEdgeStyle;rounded=0;orthogonalLoop=1;jettySize=auto;html=1;exitX=0;exitY=0.5;exitDx=0;exitDy=0;dashed=1;startArrow=classic;startFill=1;endArrow=none;endFill=0;fontSize=12;" edge="1" parent="1" source="ltAjZ6txVGTBPOTmVnSM-20">
          <mxGeometry relative="1" as="geometry">
            <mxPoint x="9690" y="1099.9444444444443" as="targetPoint" />
          </mxGeometry>
        </mxCell>
        <mxCell id="ltAjZ6txVGTBPOTmVnSM-20" value="g" style="ellipse;whiteSpace=wrap;html=1;aspect=fixed;opacity=60;align=center;fillColor=#ffff88;strokeColor=#36393d;" vertex="1" parent="1">
          <mxGeometry x="9720" y="1080" width="40" height="40" as="geometry" />
        </mxCell>
        <mxCell id="ltAjZ6txVGTBPOTmVnSM-21" value="g4" style="ellipse;whiteSpace=wrap;html=1;aspect=fixed;opacity=60;align=center;fillColor=#e51400;strokeColor=#B20000;fontColor=#ffffff;" vertex="1" parent="1">
          <mxGeometry x="9509" y="888" width="40" height="40" as="geometry" />
        </mxCell>
        <mxCell id="ltAjZ6txVGTBPOTmVnSM-22" style="edgeStyle=orthogonalEdgeStyle;rounded=0;orthogonalLoop=1;jettySize=auto;html=1;exitX=1;exitY=0.5;exitDx=0;exitDy=0;dashed=1;startArrow=classic;startFill=1;endArrow=none;endFill=0;fontSize=12;" edge="1" parent="1" source="ltAjZ6txVGTBPOTmVnSM-23">
          <mxGeometry relative="1" as="geometry">
            <mxPoint x="9530" y="1101" as="targetPoint" />
          </mxGeometry>
        </mxCell>
        <mxCell id="ltAjZ6txVGTBPOTmVnSM-23" value="g" style="ellipse;whiteSpace=wrap;html=1;aspect=fixed;opacity=60;align=center;fillColor=#ffff88;strokeColor=#36393d;" vertex="1" parent="1">
          <mxGeometry x="9460" y="1080" width="40" height="40" as="geometry" />
        </mxCell>
        <mxCell id="ltAjZ6txVGTBPOTmVnSM-24" value="g4" style="ellipse;whiteSpace=wrap;html=1;aspect=fixed;opacity=60;align=center;fillColor=#e51400;strokeColor=#B20000;fontColor=#ffffff;" vertex="1" parent="1">
          <mxGeometry x="9380" y="888" width="40" height="40" as="geometry" />
        </mxCell>
        <mxCell id="ltAjZ6txVGTBPOTmVnSM-25" value="g2" style="ellipse;whiteSpace=wrap;html=1;aspect=fixed;opacity=60;align=center;fillColor=#e51400;strokeColor=#B20000;fontColor=#ffffff;" vertex="1" parent="1">
          <mxGeometry x="9423" y="888" width="40" height="40" as="geometry" />
        </mxCell>
        <mxCell id="ltAjZ6txVGTBPOTmVnSM-26" value="g2" style="ellipse;whiteSpace=wrap;html=1;aspect=fixed;opacity=60;align=center;fillColor=#e51400;strokeColor=#B20000;fontColor=#ffffff;" vertex="1" parent="1">
          <mxGeometry x="9433" y="968" width="40" height="40" as="geometry" />
        </mxCell>
        <mxCell id="ltAjZ6txVGTBPOTmVnSM-27" value="g4" style="ellipse;whiteSpace=wrap;html=1;aspect=fixed;opacity=60;align=center;fillColor=#e51400;strokeColor=#B20000;fontColor=#ffffff;" vertex="1" parent="1">
          <mxGeometry x="9390" y="968" width="40" height="40" as="geometry" />
        </mxCell>
        <mxCell id="ltAjZ6txVGTBPOTmVnSM-28" value="g2" style="ellipse;whiteSpace=wrap;html=1;aspect=fixed;opacity=60;align=center;fillColor=#e51400;strokeColor=#B20000;fontColor=#ffffff;" vertex="1" parent="1">
          <mxGeometry x="9763" y="968" width="40" height="40" as="geometry" />
        </mxCell>
        <mxCell id="ltAjZ6txVGTBPOTmVnSM-29" value="g4" style="ellipse;whiteSpace=wrap;html=1;aspect=fixed;opacity=60;align=center;fillColor=#e51400;strokeColor=#B20000;fontColor=#ffffff;" vertex="1" parent="1">
          <mxGeometry x="9720" y="968" width="40" height="40" as="geometry" />
        </mxCell>
        <mxCell id="ltAjZ6txVGTBPOTmVnSM-30" value="g2" style="ellipse;whiteSpace=wrap;html=1;aspect=fixed;opacity=60;align=center;fillColor=#e51400;strokeColor=#B20000;fontColor=#ffffff;" vertex="1" parent="1">
          <mxGeometry x="9466" y="888" width="40" height="40" as="geometry" />
        </mxCell>
        <mxCell id="ltAjZ6txVGTBPOTmVnSM-31" value="g4" style="ellipse;whiteSpace=wrap;html=1;aspect=fixed;opacity=60;align=center;fillColor=#e51400;strokeColor=#B20000;fontColor=#ffffff;" vertex="1" parent="1">
          <mxGeometry x="9476" y="968" width="40" height="40" as="geometry" />
        </mxCell>
      </root>
    </mxGraphModel>
  </diagram>
</mxfile>
